<svg width="1200" height="780" viewBox="0 0 1200 780" fill="none" xmlns="http://www.w3.org/2000/svg">
  <rect width="1200" height="780" rx="36" fill="#F4F0E8"/>
  <rect x="36" y="36" width="1128" height="708" rx="28" fill="#FFFDF8" stroke="#D6CEC0" stroke-width="2"/>
  <rect x="72" y="72" width="1056" height="68" rx="18" fill="#183153"/>
  <text x="108" y="114" fill="#FFFFFF" font-family="Arial, sans-serif" font-size="30" font-weight="700">MicroFlowOps Daily Brief</text>
  <text x="850" y="114" fill="#C7D5E8" font-family="Arial, sans-serif" font-size="20" font-weight="600">Frozen sample • Mar 6, 2026 UTC</text>
  <rect x="72" y="166" width="270" height="42" rx="21" fill="#E9F3FF"/>
  <text x="98" y="193" fill="#215A9B" font-family="Arial, sans-serif" font-size="20" font-weight="700">Texas public OSHA snapshot</text>
  <text x="72" y="245" fill="#243444" font-family="Arial, sans-serif" font-size="34" font-weight="700">Recent alert screenshot</text>
  <text x="72" y="282" fill="#5D6A75" font-family="Arial, sans-serif" font-size="22">Ranked public OSHA records with opened and observed timestamps.</text>
  <rect x="72" y="322" width="1056" height="86" rx="18" fill="#F7FBFF" stroke="#D6E5F5" stroke-width="2"/>
  <rect x="96" y="346" width="74" height="36" rx="18" fill="#D53131"/>
  <text x="118" y="370" fill="#FFFFFF" font-family="Arial, sans-serif" font-size="18" font-weight="700">High</text>
  <text x="198" y="356" fill="#16202A" font-family="Arial, sans-serif" font-size="26" font-weight="700">Rhino Specialty Services</text>
  <text x="198" y="384" fill="#55606B" font-family="Arial, sans-serif" font-size="20">Midland, TX • Planned • Opened Mar 3, 2026 • Observed Mar 6, 2026</text>
  <text x="986" y="370" fill="#215A9B" font-family="Arial, sans-serif" font-size="18" font-weight="700">View OSHA record</text>
  <rect x="72" y="426" width="1056" height="86" rx="18" fill="#FCF8F2" stroke="#E7D6BE" stroke-width="2"/>
  <rect x="96" y="450" width="104" height="36" rx="18" fill="#C78A2C"/>
  <text x="114" y="474" fill="#FFFFFF" font-family="Arial, sans-serif" font-size="18" font-weight="700">Medium</text>
  <text x="228" y="460" fill="#16202A" font-family="Arial, sans-serif" font-size="26" font-weight="700">Lauren Samuels Construction, Inc.</text>
  <text x="228" y="488" fill="#55606B" font-family="Arial, sans-serif" font-size="20">Crockett, TX • Referral • Opened Mar 3, 2026 • Observed Mar 6, 2026</text>
  <text x="986" y="474" fill="#215A9B" font-family="Arial, sans-serif" font-size="18" font-weight="700">View OSHA record</text>
  <rect x="72" y="530" width="1056" height="86" rx="18" fill="#FCF8F2" stroke="#E7D6BE" stroke-width="2"/>
  <rect x="96" y="554" width="104" height="36" rx="18" fill="#C78A2C"/>
  <text x="114" y="578" fill="#FFFFFF" font-family="Arial, sans-serif" font-size="18" font-weight="700">Medium</text>
  <text x="228" y="564" fill="#16202A" font-family="Arial, sans-serif" font-size="26" font-weight="700">Debsteel Inc.</text>
  <text x="228" y="592" fill="#55606B" font-family="Arial, sans-serif" font-size="20">San Antonio, TX • Inspection • Opened Mar 4, 2026 • Observed Mar 6, 2026</text>
  <text x="986" y="578" fill="#215A9B" font-family="Arial, sans-serif" font-size="18" font-weight="700">View OSHA record</text>
  <rect x="72" y="644" width="1056" height="64" rx="18" fill="#F6F2EA"/>
  <text x="96" y="684" fill="#45525D" font-family="Arial, sans-serif" font-size="20">Each row links back to the public OSHA record so buyers can validate before acting.</text>
</svg>
